<?xml version="1.0" encoding="UTF-8" standalone="no"?>
<!DOCTYPE svg PUBLIC "-//W3C//DTD SVG 1.1//EN" "http://www.w3.org/Graphics/SVG/1.1/DTD/svg11.dtd">
<svg width="100%" height="100%" viewBox="0 0 797 436" version="1.1" xmlns="http://www.w3.org/2000/svg" xmlns:xlink="http://www.w3.org/1999/xlink" xml:space="preserve" xmlns:serif="http://www.serif.com/" style="fill-rule:evenodd;clip-rule:evenodd;stroke-linejoin:round;stroke-miterlimit:2;">
    <g>
        <path d="M525.1,23.4C533.9,32.4 532.7,29.6 537.1,52.5C538.1,58 539.6,65.9 540.4,70C541.2,74.2 542.7,79.1 543.8,81C544.9,83 547,90.9 548.5,98.9C550.9,111.3 551.7,113.7 554.2,116.6C556.3,118.9 558.3,123.5 560.7,131.7C562.7,138.2 565.3,145.1 566.6,147C567.8,148.9 572.1,160.6 576,173C580,185.4 583.7,196 584.3,196.6C586.8,198.9 618.6,200.6 621.8,198.6C622.4,198.3 623.8,195 625.1,191.3C629.1,179.1 634,169.7 639.3,163.8C642.2,160.7 646,156.3 647.8,154.2C651,150.2 652.8,149.5 661.5,148.4C667,147.6 679.8,149.5 681.8,151.3C682.8,152.1 685.8,154 688.5,155.5C696.1,159.7 701.8,164.7 704.1,169.3C705.3,171.6 706.9,174.3 707.7,175.2C708.5,176.1 711.1,182 713.4,188.2L717.5,199.5L717.2,217C717,233.1 716.8,234.8 714.5,239.7C713.1,242.5 712,245.5 712,246.2C712,247.9 700.2,261 698.7,261C698.1,261 696.9,261.6 696.1,262.4C692,265.9 686.1,266.6 667.7,265.9C653.5,265.3 649.5,264.9 648.1,263.6C647.1,262.7 646,262 645.6,262C642.7,262 630.9,250.6 627.5,244.5C623,236.6 619,228.1 619,226.7C619,223 616.6,222 606.3,221.5C594.4,220.9 594.8,220.4 597.6,231.5C600.4,242.5 603.1,254.4 604.6,262C605.4,266.1 606.4,271.3 606.9,273.5C607.4,275.7 608.5,280.9 609.4,285C611.2,293.7 613.3,334.5 612,336.9C607.9,344.7 601.1,342.2 597.5,331.5C597.1,330.4 596.2,326.1 595.4,322C593.4,310.8 591.4,302 589.5,295.9C588.6,292.9 587.7,285.8 587.4,280C586.9,270.2 584.9,259.1 581.4,247.6C580.7,245 580,242.2 580,241.4C580,240.7 579.1,238.1 578.1,235.8C577,233.4 575.4,229.7 574.4,227.5C573.5,225.3 572,223 571.1,222.5C570.1,221.9 556.9,221.4 538,221.3C520.7,221.2 504.3,221 501.5,221C493.6,220.8 435,220.7 408.1,220.9C380,221 383.6,219.5 376.5,234C370.3,246.6 368.6,249.8 366.1,254C365,255.9 363.5,258.6 362.9,260C362.3,261.4 361.4,263.2 360.9,264C358.7,267.8 344,297.9 344,298.5C344,298.9 342.5,303.1 340.6,307.9C338.8,312.6 336.5,318.6 335.6,321.1C334.7,323.6 332.2,328.4 330,331.8C327.8,335.2 326,338.3 326,338.9C326,339.4 324,340.8 321.5,342C316.3,344.5 315.2,344.1 312.5,338.3C309.6,332.3 311.1,323.2 317.5,308.2C323.6,293.7 331.9,276.4 334.7,272.3C335.8,270.8 337.4,267.7 338.2,265.5C339.1,263.3 343.9,253.1 348.9,242.9C353.9,232.6 358,223.3 358,222.2C358,218.7 352.5,218 323.8,218C302.5,218 295.9,217.7 290.8,216.4C285.5,215 281.1,214.9 262.5,215.4C250.4,215.8 236.5,216.6 231.5,217.2C226.6,217.8 214.4,218.4 204.5,218.6C194.6,218.7 181.8,219.4 176,220C162.2,221.6 108.7,220.5 104.9,218.6C103.5,217.9 99,217.2 95,217.1C90.9,217 87.2,216.6 86.7,216.3C86.3,216.1 85.3,216.4 84.5,217C83.3,218 83,222 83,238.4C83,260 82.4,264 78.8,267C75.5,269.8 72.8,269.4 69.2,265.7C66.5,262.9 65.9,261.3 65.1,255C64.2,248.1 63.1,230.7 62.5,213.5C62.2,203.8 60.2,183.3 59.1,178.5C56.6,167.3 56,163 56.2,157.5C56.3,153 55.8,150.4 54.1,147.2C51.7,142.5 51.6,138.1 54,137C59.5,134.4 62.4,134.1 65.9,135.8C71,138.2 77.4,145.1 80.6,151.8C83.2,157.1 83.4,158.6 83.8,172.7L84.2,187.9L87.3,189.4C89.1,190.2 93.1,190.9 96.2,190.9C99.3,190.9 102.8,191.4 103.9,192C109,194.6 130.8,198 143.7,198C154.5,198 154.9,197.9 156.9,195.4C159.2,192.5 160.3,192.4 171,193.8C178.8,194.9 202.6,196.3 212,196.2C221.1,196.2 234.6,194.6 236.1,193.4C238,191.9 286,192.4 300.5,194.1C312.7,195.5 322.3,195.4 325.2,193.9C326.5,193.2 330.6,193.4 338.8,194.6C345.2,195.5 351.9,196.1 353.5,196C355.2,195.9 357.2,195.8 358,195.8C358.8,195.7 362.3,196 365.7,196.4L371.8,197.2L374.3,192.3C379.3,182.5 390.8,160.4 393.3,155.8C394.6,153.2 397.9,148.7 400.5,145.8C404.4,141.4 419,117.1 419,115.1C419,114.8 420.9,111.6 423.3,108C425.6,104.4 429,98.7 430.8,95.2C436.9,83.5 440.8,78.2 445.3,75.7C449.5,73.2 458,71.3 458,72.7C458,73.2 457.3,75.5 456.4,78C455.5,80.5 454.2,84.8 453.5,87.5C452.7,90.3 450.3,95.8 448.1,99.8C445.8,103.7 444,107.3 444,107.8C444,108.3 443.4,109.3 442.6,109.9C441.9,110.5 440.5,113.4 439.6,116.3C438.7,119.1 436.9,123.2 435.7,125.2C428.2,137.7 424.2,144.1 420.3,149.1C417.9,152.3 416,155.1 416,155.4C416,155.7 413.8,159.3 411,163.4C408.3,167.5 405.6,171.9 405,173.2C404.5,174.4 403.6,176.2 403.1,177C401.1,180.1 396.9,192.2 397.2,193.8C397.4,195 398.9,195.7 402,196.1C420.8,198.7 420.6,198.7 445.5,197.7C450.5,197.5 460.1,197.9 467,198.5C474.6,199.3 480.4,199.4 481.9,198.9C483.1,198.4 499.6,198.1 518.4,198.2C559.5,198.5 565.5,197.8 562.9,192.9C562.4,191.9 562,190.3 562,189.3C562,188.3 558,179.3 553.1,169.4C544.1,151.1 537.3,134.3 534.5,123.6C533.6,120.3 532.5,117.1 532.1,116.6C530.8,115.1 524,96.5 524,94.7C524,92.6 521.2,83.4 518.4,76.7C516.6,72.3 516,69 516,63.2C516,59 515.5,53.8 514.9,51.7C513.1,45 518.5,21 521.8,21C522.3,21 523.8,22.1 525.1,23.4ZM666.3,166.6C665.3,167.3 663.9,168 663.2,168C662.5,168 659.5,169.1 656.6,170.5C651.9,172.7 650.7,173.9 646.8,180.8C640.3,191.8 638.9,194.7 639.5,196.2C639.9,197.1 644.9,198.4 653.3,199.8C660.5,201.1 668.1,202.5 670,203C682.7,206.1 688,207.3 691.6,207.7C695.6,208.2 695.7,208.1 696.4,205C697.6,198.9 697,193.1 695,189.8C693.9,188 693,185.9 693,185.1C693,184.4 690.8,181.3 688,178.3C685.3,175.3 683,172.4 683,171.9C683,170.8 676.6,167.5 671.8,166.2C669,165.4 667.7,165.5 666.3,166.6ZM643.4,223C644.2,227.4 647.7,231 651,231C652.5,231 654.6,232.1 656,233.5C657.7,235.3 659.4,236 662,236C664.6,236 666.3,236.7 668,238.4C672.2,243 679.3,242.9 681.1,238.3C681.6,236.9 683.4,235.3 685,234.7C686.7,234.1 688,233.1 688,232.6C688,232.1 689,230.6 690.1,229.4L692.3,227.1L689.9,226.6C688.6,226.3 685.3,225.9 682.5,225.6C679.8,225.3 675.5,224.6 673,224C670.5,223.4 664.5,222.5 659.5,222C654.6,221.6 648.7,220.8 646.6,220.4L642.7,219.7L643.4,223Z" style="fill:white;"/>
    </g>
</svg>
